<svg width="70" height="77" viewBox="0 0 70 77" fill="none" xmlns="http://www.w3.org/2000/svg">
<path d="M22.4134 32.6721C10.3859 32.6721 0.59314 42.4648 0.59314 54.4923C0.59314 66.5199 10.3859 76.3126 22.4134 76.3126C31.93 76.3126 40.0404 70.1859 43.0159 61.6737C44.4973 61.7365 45.8407 61.7616 46.9455 61.7616C53.6498 61.7616 69.2303 61.0585 69.2303 54.4798C69.2303 54.4547 69.2303 54.4421 69.2303 54.417C69.2303 54.3919 69.2303 54.3793 69.2303 54.3668V45.591C69.268 45.4026 69.2931 45.2018 69.2931 44.9883C69.2931 44.7749 69.268 44.5991 69.2303 44.4234V37.2043C69.268 37.016 69.2931 36.8152 69.2931 36.6017C69.2931 36.4134 69.268 36.2251 69.2303 36.0368V28.0017C69.268 27.8133 69.2931 27.6125 69.2931 27.399C69.2931 27.0475 69.2303 26.7336 69.1174 26.4198C69.1927 26.131 69.2303 25.8297 69.2303 25.5158C69.2303 25.5033 69.2303 25.4781 69.2303 25.453C69.2303 25.4405 69.2303 25.4154 69.2303 25.4028V16.627C69.268 16.4387 69.2931 16.2378 69.2931 16.0244C69.2931 15.836 69.268 15.6477 69.2303 15.4594V7.46198C69.268 7.27366 69.2931 7.07278 69.2931 6.85935C69.2931 6.50781 69.2178 6.16883 69.1048 5.84241C68.9165 5.16445 68.4896 4.59948 67.9246 4.24794C63.3798 0.393615 48.879 0.268066 46.9455 0.268066C45.0121 0.268066 30.5113 0.393615 25.9539 4.2605C25.3889 4.61203 24.9746 5.177 24.7737 5.85496C24.6482 6.18139 24.5854 6.50781 24.5854 6.8719C24.5854 7.07278 24.6105 7.27366 24.6482 7.47453V15.5096C24.6105 15.6979 24.5854 15.8863 24.5854 16.0746C24.5854 16.288 24.6105 16.4889 24.6482 16.6772V25.5535C24.6482 25.8799 24.6984 26.1687 24.7612 26.4574C24.6482 26.7713 24.5854 27.0852 24.5854 27.4367C24.5854 27.6376 24.6105 27.8385 24.6482 28.0393V32.7976C23.9074 32.7223 23.1667 32.6846 22.4134 32.6846V32.6721ZM66.6817 54.3166C66.6817 54.3166 66.6817 54.4296 66.6817 54.4798C66.6817 54.5049 66.6817 54.53 66.6817 54.5551C66.5562 57.0033 57.7427 58.987 46.933 58.987C45.8533 58.987 44.8112 58.9619 43.7817 58.9242C44.0705 57.4929 44.2337 56.024 44.2337 54.5049C44.2337 54.1157 44.2337 53.7265 44.2086 53.3498C45.213 53.375 46.142 53.3875 46.9455 53.3875C51.9675 53.3875 61.9862 52.9858 66.6943 50.0228V54.3166H66.6817ZM66.6817 45.9299C66.6817 45.9299 66.6817 46.0429 66.6817 46.0932C66.6817 46.1183 66.6817 46.1434 66.6817 46.1685C66.5562 48.6167 57.7427 50.6003 46.933 50.6003C45.8909 50.6003 44.8614 50.5752 43.8571 50.5376C43.4302 48.2275 42.6392 46.0429 41.547 44.0342C43.5934 44.1597 45.4766 44.1974 46.9204 44.1974C51.9424 44.1974 61.9611 43.7956 66.6692 40.8327V45.9425L66.6817 45.9299ZM66.6817 25.3652C66.6817 25.3652 66.6817 25.4781 66.6817 25.5284C66.6817 25.5535 66.6817 25.5786 66.6817 25.6037C66.5562 28.0519 57.7427 30.023 46.933 30.023C36.1233 30.023 27.3098 28.0393 27.1842 25.5911C27.1842 25.5409 27.1842 25.4907 27.1842 25.453C27.1842 25.4279 27.1842 25.3903 27.1842 25.3526V20.2428C31.8798 23.2057 41.8985 23.6075 46.933 23.6075C51.9675 23.6075 61.9737 23.2057 66.6817 20.2428V25.3526V25.3652ZM46.9455 3.49466C58.157 3.49466 65.0998 5.57876 66.28 6.8719C65.1124 8.16505 58.157 10.2491 46.9455 10.2491C35.7341 10.2491 28.7913 8.16505 27.6111 6.8719C28.7787 5.57876 35.7341 3.49466 46.9455 3.49466ZM46.9455 13.4757C48.7158 13.4757 61.1827 13.3627 66.6943 10.3119V16.175C66.6943 16.175 66.6943 16.288 66.6943 16.3382C66.6943 16.3633 66.6943 16.3885 66.6943 16.4136C66.5687 18.8618 57.7552 20.8454 46.9455 20.8454C36.1358 20.8454 27.3224 18.8618 27.1968 16.4136C27.1968 16.3633 27.1968 16.3131 27.1968 16.2755C27.1968 16.2504 27.1968 16.2127 27.1968 16.1876V10.3119C32.6958 13.3502 45.1628 13.4757 46.9455 13.4757ZM46.9455 34.0405C48.7158 34.0405 61.1827 33.9275 66.6943 30.8767V36.7398C66.6943 36.7398 66.6943 36.8528 66.6943 36.903C66.6943 36.9281 66.6943 36.9533 66.6943 36.9784C66.5687 39.4266 57.7552 41.4102 46.9455 41.4102C44.3467 41.4102 41.8734 41.2972 39.601 41.0838C36.5501 37.1792 32.1936 34.3419 27.1968 33.2245V30.8893C32.6958 33.9275 45.1628 34.0531 46.9455 34.0531V34.0405ZM41.4465 54.5049C41.4465 65.0007 32.9092 73.538 22.4134 73.538C11.9176 73.538 3.38031 65.0007 3.38031 54.5049C3.38031 44.0091 11.9176 35.4718 22.4134 35.4718C32.9092 35.4718 41.4465 44.0091 41.4465 54.5049Z" fill="white"/>
</svg>
