<svg width="72" height="82" viewBox="0 0 72 82" fill="none" xmlns="http://www.w3.org/2000/svg">
<g clip-path="url(#clip0_1_249)">
<path d="M71.6933 3.94015C71.6933 1.93472 70.0619 0.292969 68.0461 0.292969H3.85147C1.83565 0.292969 0.204285 1.93472 0.204285 3.94015C0.204285 5.94559 1.7733 7.50421 3.72678 7.56656C3.60209 8.07571 3.52935 8.61603 3.52935 9.16675V43.0201C3.52935 43.5708 3.60209 44.1008 3.72678 44.6203C1.7733 44.693 0.204285 46.2932 0.204285 48.2571C0.204285 50.221 1.83565 51.9043 3.85147 51.9043H32.6757C32.6341 52.1433 32.6029 52.3719 32.6029 52.6213V61.2872C32.4263 61.4015 32.26 61.5262 32.1146 61.6821L19.7495 74.5459C19.1676 75.1486 18.9182 76.0214 19.074 76.9462C19.2091 77.7671 19.6559 78.5776 20.3106 79.2114C20.9756 79.8556 21.7964 80.2609 22.6173 80.3648C23.5421 80.4791 24.4149 80.2089 24.9968 79.6063L32.6029 71.6988V78.2035C32.6029 80.3025 34.2343 82.0169 36.2501 82.0169C38.2659 82.0169 39.8973 80.3128 39.8973 78.2035V71.678L48.636 80.0842C49.249 80.6765 50.1427 80.9363 51.0674 80.8012C51.9091 80.6765 52.73 80.2401 53.3742 79.5751C54.0184 78.9101 54.4237 78.0788 54.5068 77.2268C54.6107 76.2916 54.3094 75.4188 53.6963 74.8265L40.2298 61.8691C40.1259 61.7756 40.022 61.6821 39.8973 61.5989V52.6213C39.8973 52.3719 39.8661 52.1433 39.8246 51.9043H68.0461C70.0515 51.9043 71.6933 50.2729 71.6933 48.2571C71.6933 46.7608 70.7893 45.4723 69.4904 44.9112C69.667 44.3086 69.7606 43.6851 69.7606 43.0201V9.17714C69.7606 8.52252 69.667 7.88867 69.4904 7.28601C70.7789 6.7249 71.6933 5.43644 71.6933 3.94015ZM52.252 76.2916C52.4598 76.489 52.4598 76.8111 52.4494 76.9878C52.4079 77.3826 52.2 77.7879 51.8779 78.1308C51.5558 78.4633 51.1506 78.6919 50.7661 78.7438C50.5895 78.7646 50.2777 78.775 50.0595 78.5776L39.5752 68.4881C39.2738 68.1971 38.8374 68.1244 38.4634 68.2803C38.0789 68.4361 37.8399 68.8102 37.8399 69.2258V78.1723C37.8399 79.1387 37.1333 79.918 36.2501 79.918C35.3669 79.918 34.6603 79.1387 34.6603 78.1723V69.1219C34.6603 68.6959 34.4109 68.3218 34.0161 68.1659C33.8914 68.114 33.7563 68.0932 33.6316 68.0932C33.3615 68.0932 33.0913 68.1971 32.8939 68.4153L23.5109 78.1619C23.3343 78.3386 23.0434 78.3282 22.8875 78.3178C22.503 78.2658 22.0874 78.0476 21.7445 77.7255C21.4016 77.4034 21.173 76.9878 21.1107 76.6033C21.0795 76.4474 21.0691 76.1461 21.2353 75.9695L33.6108 63.1056C33.6628 63.0537 33.7563 63.0017 33.8706 62.9809C34.3382 62.877 34.6707 62.451 34.6707 61.973V52.6213C34.6707 52.3615 34.7227 52.1225 34.8162 51.9043H37.7048C37.7983 52.1225 37.8503 52.3615 37.8503 52.6213V62.2328C37.8503 62.6796 38.1412 63.0744 38.5673 63.2095C38.6712 63.2407 38.7543 63.2926 38.8063 63.3446L52.2728 76.302L52.252 76.2916ZM69.6359 48.2467C69.6359 49.1195 68.9189 49.8365 68.0461 49.8365H3.85147C2.97864 49.8365 2.26167 49.1195 2.26167 48.2467C2.26167 47.3739 2.97864 46.6569 3.85147 46.6569H68.0461C68.9189 46.6569 69.6359 47.3739 69.6359 48.2467ZM6.61543 43.0201V9.17714C6.61543 8.60564 6.7609 8.07571 6.9895 7.58734H66.3004C66.529 8.06532 66.6745 8.60564 66.6745 9.17714V43.0201C66.6745 43.5916 66.529 44.1215 66.3004 44.6099H6.9895C6.7609 44.1319 6.61543 43.5916 6.61543 43.0201ZM68.0461 5.52995H3.85147C2.97864 5.52995 2.26167 4.81298 2.26167 3.94015C2.26167 3.06732 2.97864 2.35036 3.85147 2.35036H68.0461C68.9189 2.35036 69.6359 3.06732 69.6359 3.94015C69.6359 4.81298 68.9189 5.52995 68.0461 5.52995Z" fill="white"/>
<path d="M58.3306 13.6555C57.6552 13.1463 56.6784 13.2814 56.1693 13.9568L46.8279 26.3635L34.3693 20.1393C33.6731 19.7861 32.8314 20.0147 32.395 20.6589L23.781 33.5851H14.4916C13.6395 33.5851 12.9434 34.2813 12.9434 35.1333C12.9434 35.9854 13.6395 36.6816 14.4916 36.6816H24.6123C25.1318 36.6816 25.6098 36.4218 25.9007 35.9958L34.2134 23.5268L46.5993 29.7197C47.2643 30.0522 48.0748 29.8652 48.5216 29.2625L58.6423 15.8271C59.1514 15.1517 59.0164 14.175 58.341 13.6658L58.3306 13.6555Z" fill="white"/>
</g>
<defs>
<clipPath id="clip0_1_249">
<rect width="71.489" height="81.6928" fill="white" transform="translate(0.204346 0.292969)"/>
</clipPath>
</defs>
</svg>
