<svg width="65" height="82" viewBox="0 0 65 82" fill="none" xmlns="http://www.w3.org/2000/svg">
<g clip-path="url(#clip0_1_234)">
<path d="M49.1929 34.6812H9.60964C8.02203 34.6812 8.02203 37.1454 9.60964 37.1454H49.1929C50.7805 37.1454 50.7805 34.6812 49.1929 34.6812Z" fill="white"/>
<path d="M49.1929 45.9016H9.60964C8.02203 45.9016 8.02203 48.3658 9.60964 48.3658H49.1929C50.7805 48.3658 50.7805 45.9016 49.1929 45.9016Z" fill="white"/>
<path d="M49.1929 57.1313H9.60964C8.02203 57.1313 8.02203 59.5956 9.60964 59.5956H49.1929C50.7805 59.5956 50.7805 57.1313 49.1929 57.1313Z" fill="white"/>
<path d="M49.1929 68.3518H9.60964C8.02203 68.3518 8.02203 70.816 9.60964 70.816H49.1929C50.7805 70.816 50.7805 68.3518 49.1929 68.3518Z" fill="white"/>
<path d="M13.787 24.6782C13.787 22.9347 12.365 21.5127 10.6215 21.5127C8.87809 21.5127 7.45605 22.9347 7.45605 24.6782C7.45605 26.4216 8.87809 27.8437 10.6215 27.8437C12.365 27.8437 13.787 26.4216 13.787 24.6782ZM8.78069 24.6782C8.78069 23.6652 9.60859 22.8276 10.6313 22.8276C11.654 22.8276 12.4819 23.6652 12.4819 24.6782C12.4819 25.6911 11.654 26.5288 10.6313 26.5288C9.60859 26.5288 8.78069 25.7009 8.78069 24.6782Z" fill="white"/>
<path d="M20.0117 27.8437C21.7552 27.8437 23.1675 26.4216 23.1675 24.6782C23.1675 22.9347 21.7454 21.5127 20.0117 21.5127C18.278 21.5127 16.8462 22.9347 16.8462 24.6782C16.8462 26.4216 18.2683 27.8437 20.0117 27.8437ZM20.0117 22.8276C21.0344 22.8276 21.8623 23.6652 21.8623 24.6782C21.8623 25.6911 21.0344 26.5288 20.0117 26.5288C18.989 26.5288 18.1611 25.7009 18.1611 24.6782C18.1611 23.6555 18.989 22.8276 20.0117 22.8276Z" fill="white"/>
<path d="M29.4006 27.8437C31.144 27.8437 32.5563 26.4216 32.5563 24.6782C32.5563 22.9347 31.1343 21.5127 29.4006 21.5127C27.6669 21.5127 26.2351 22.9347 26.2351 24.6782C26.2351 26.4216 27.6571 27.8437 29.4006 27.8437ZM29.4006 22.8276C30.4233 22.8276 31.2512 23.6652 31.2512 24.6782C31.2512 25.6911 30.4233 26.5288 29.4006 26.5288C28.3779 26.5288 27.55 25.7009 27.55 24.6782C27.55 23.6555 28.3779 22.8276 29.4006 22.8276Z" fill="white"/>
<path d="M38.7901 27.8437C40.5336 27.8437 41.9556 26.4216 41.9556 24.6782C41.9556 22.9347 40.5336 21.5127 38.7901 21.5127C37.0467 21.5127 35.6246 22.9347 35.6246 24.6782C35.6246 26.4216 37.0467 27.8437 38.7901 27.8437ZM38.7901 22.8276C39.8128 22.8276 40.6407 23.6652 40.6407 24.6782C40.6407 25.6911 39.8128 26.5288 38.7901 26.5288C37.7674 26.5288 36.9395 25.7009 36.9395 24.6782C36.9395 23.6555 37.7674 22.8276 38.7901 22.8276Z" fill="white"/>
<path d="M45.0135 24.6782C45.0135 26.4216 46.4355 27.8437 48.179 27.8437C49.9224 27.8437 51.3347 26.4216 51.3347 24.6782C51.3347 22.9347 49.9127 21.5127 48.179 21.5127C46.4453 21.5127 45.0135 22.9347 45.0135 24.6782ZM48.179 22.8276C49.2017 22.8276 50.0296 23.6652 50.0296 24.6782C50.0296 25.6911 49.2017 26.5288 48.179 26.5288C47.1563 26.5288 46.3284 25.7009 46.3284 24.6782C46.3284 23.6555 47.1563 22.8276 48.179 22.8276Z" fill="white"/>
<path d="M62.4186 20.4414C61.8439 20.4511 61.1134 20.4414 60.2855 20.3927V12.9318H52.0358C53.5455 11.5682 54.4123 9.57155 54.4318 7.79888C54.461 5.31518 52.9611 3.45485 50.4384 2.83149C48.5878 2.37371 46.9515 2.63669 45.695 3.59121C44.4483 4.54573 43.6009 6.19178 43.2893 8.20796C43.2795 8.18848 43.2698 8.17874 43.26 8.15926C42.2568 6.47424 42.5782 4.75027 43.1139 2.65617C43.4159 1.47763 42.6172 0.601037 41.7114 0.367277C40.8153 0.143258 39.7537 0.513377 39.4615 1.67243C38.7407 4.50677 38.2537 8.14952 40.8445 11.2371C41.3802 11.8702 42.0133 12.4448 42.7049 12.9221H0.0437889V81.998H60.2855V24.1815C60.8115 24.2107 61.3374 24.2302 61.8731 24.2302C62.0582 24.2302 62.253 24.2302 62.438 24.2302C63.6555 24.2107 64.2886 23.2075 64.2692 22.2822C64.2497 21.3569 63.6068 20.4608 62.4088 20.4608L62.4186 20.4414ZM58.318 14.8993V20.1784C55.0357 19.6816 51.0715 18.3278 48.5975 14.8993H58.318ZM58.318 80.0305H2.01126V14.8993H44.1756C46.6301 19.8862 51.7728 23.1296 58.318 23.9867V80.0305ZM62.4186 22.9056C54.4415 23.0712 48.0521 19.8375 45.3347 14.2954C45.1301 13.8864 44.9645 13.4091 44.8184 12.8831L44.7405 12.6007L44.4775 12.4741C43.4646 11.9676 42.549 11.2468 41.838 10.3994C39.6465 7.7794 40.0459 4.69183 40.7276 2.00359C40.8056 1.69191 41.0199 1.62373 41.1952 1.62373C41.2731 1.62373 41.3315 1.63347 41.3802 1.65295C41.4776 1.68217 41.9549 1.82827 41.8283 2.34449C41.2439 4.64313 40.864 6.72748 42.1205 8.84105C42.4321 9.36701 42.851 9.86375 43.3574 10.3313L44.4288 11.315L44.4581 9.86375C44.5068 7.50668 45.247 5.59764 46.4937 4.64313C47.4287 3.92237 48.6462 3.74705 50.117 4.11717C52.7565 4.76975 53.1266 6.69826 53.1169 7.79888C53.0974 9.97089 51.5293 12.5617 48.9482 13.1461C48.4125 13.2727 47.8281 13.3117 47.234 13.2727L46.0554 13.1948L46.6106 14.237C50.3215 21.2498 58.9219 21.8439 62.4478 21.7855C62.4478 21.7855 62.4575 21.7855 62.4673 21.7855C62.9153 21.7855 62.964 22.1556 62.9737 22.3212C62.9737 22.4186 62.9543 22.9251 62.4283 22.9348L62.4186 22.9056Z" fill="white"/>
<path d="M50.1659 11.4122C52.3477 9.98045 52.1821 8.38309 52.0165 7.76947C51.6659 6.49354 50.3705 5.52928 48.929 5.47084C47.4485 5.40266 46.2018 6.31822 45.6174 7.91557C45.2473 8.92853 45.2083 10.0973 45.5102 11.383L45.5979 11.7434L45.9485 11.8603C46.5329 12.0551 47.1173 12.1427 47.6725 12.1427C48.5783 12.1427 49.4257 11.8992 50.1659 11.4122ZM46.7082 10.7109C46.5427 9.81487 46.5914 9.04541 46.8446 8.37335C47.2342 7.3117 47.955 6.73704 48.8705 6.78574C49.7276 6.8247 50.5458 7.4091 50.7503 8.12011C50.9549 8.85061 50.4874 9.62981 49.4452 10.3213C48.5004 10.9447 47.4874 10.9057 46.7082 10.7207V10.7109Z" fill="white"/>
</g>
<defs>
<clipPath id="clip0_1_234">
<rect width="64.2351" height="81.6891" fill="white" transform="translate(0.0441895 0.308105)"/>
</clipPath>
</defs>
</svg>
