<svg width="70" height="70" viewBox="0 0 70 70" fill="none" xmlns="http://www.w3.org/2000/svg">
<g clip-path="url(#clip0_1_209)">
<path d="M4.59253 13.3769C4.30416 13.6951 4.03567 14.0332 3.78707 14.3813C1.51986 16.39 -0.270048 20.7951 0.784007 26.2344C5.30849 49.7816 25.1367 67.7105 49.012 69.8584C49.5291 69.9082 50.0363 69.928 50.5434 69.928C53.2879 69.928 55.8733 69.2519 57.9317 67.989C58.9261 67.4122 59.8111 66.6963 60.5669 65.861L62.6153 63.5938C66.6128 59.1687 66.2647 52.3273 61.8496 48.3199L58.3892 45.1876C56.4004 43.3877 53.8249 42.3933 51.14 42.3933C48.0872 42.3933 45.1637 43.696 43.1153 45.9532L41.0668 48.2205C40.2614 49.1055 39.625 50.0999 39.1576 51.1937C30.9837 47.7531 24.2815 41.6177 20.1349 33.7819C21.6364 33.1753 22.9888 32.2306 24.0826 31.0175L26.1311 28.7502C28.0701 26.6123 29.0546 23.838 28.9154 20.9542C28.7761 18.0705 27.5133 15.4154 25.3753 13.4764L21.9148 10.344C19.9261 8.5442 17.3506 7.5498 14.6657 7.5498C11.6129 7.5498 8.68943 8.84251 6.64098 11.1097L4.59253 13.3769ZM8.69937 12.9692C10.2208 11.2887 12.3886 10.3242 14.6558 10.3242C16.6446 10.3242 18.5637 11.06 20.0454 12.4024L23.5059 15.5248C25.0969 16.9667 26.0316 18.9356 26.141 21.0835C26.2504 23.2314 25.5145 25.2898 24.0727 26.8708L22.0242 29.1381C21.0398 30.222 19.7868 31.0175 18.3947 31.4451L17.7682 31.634C17.3804 31.7533 17.0523 32.0317 16.8932 32.4096C16.7341 32.7875 16.744 33.2151 16.923 33.583L17.2114 34.1697C21.7458 43.2883 29.4623 50.3584 38.9289 54.0973L39.4659 54.3161C39.8238 54.4553 40.2117 54.4454 40.5597 54.2763C40.9077 54.1172 41.1663 53.8189 41.2856 53.4609L41.4646 52.914C41.8226 51.8599 42.3794 50.9053 43.1252 50.0899L45.1737 47.8227C46.6951 46.1422 48.8728 45.1776 51.1301 45.1776C53.1189 45.1776 55.038 45.9135 56.5197 47.2559L59.9802 50.3882C63.2617 53.3615 63.5202 58.4528 60.547 61.7342L58.4985 64.0015C57.9417 64.6279 57.2754 65.155 56.4998 65.6024C54.5309 66.8056 51.9654 67.3426 49.2507 67.094C26.6183 65.0555 7.80442 48.0415 3.51859 25.7074C2.61369 21.0238 4.3141 17.5832 5.68636 16.4198C5.73608 16.38 5.77586 16.3402 5.81563 16.3005L5.91507 16.1911C5.91507 16.1911 5.99462 16.1016 6.02445 16.0519C6.22333 15.7734 6.43216 15.495 6.67081 15.2365L8.71926 12.9692H8.69937Z" fill="white"/>
<path d="M69.7744 33.0168C69.7744 14.8094 54.9579 0.00292969 36.7606 0.00292969C35.1695 0.00292969 33.8669 1.30558 33.8669 2.89661C33.8669 4.48764 35.1596 5.79029 36.7606 5.79029C51.7759 5.79029 63.987 18.0014 63.987 33.0168C63.987 34.6078 65.2797 35.9104 66.8807 35.9104C68.4817 35.9104 69.7744 34.6078 69.7744 33.0168ZM66.8807 34.5183C66.0554 34.5183 65.3792 33.8421 65.3792 33.0168C65.3792 17.2358 52.5416 4.39814 36.7606 4.39814C35.9352 4.39814 35.259 3.72196 35.259 2.89661C35.259 2.07127 35.9352 1.39508 36.7606 1.39508C54.1923 1.39508 68.3822 15.5851 68.3822 33.0168C68.3822 33.8421 67.7061 34.5183 66.8807 34.5183Z" fill="white"/>
<path d="M36.402 10.7524C34.811 10.7524 33.5083 12.0551 33.5083 13.6461C33.5083 15.2372 34.801 16.5299 36.402 16.5299C45.6797 16.5299 53.237 24.0773 53.237 33.3649C53.237 34.9559 54.5298 36.2586 56.1307 36.2586C57.7317 36.2586 59.0244 34.9559 59.0244 33.3649C59.0244 20.8952 48.8816 10.7524 36.4119 10.7524H36.402ZM56.1307 34.8665C55.3054 34.8665 54.6292 34.1903 54.6292 33.3649C54.6292 23.3216 46.4553 15.1477 36.402 15.1477C35.5766 15.1477 34.9004 14.4715 34.9004 13.6461C34.9004 12.8208 35.5766 12.1446 36.402 12.1446C48.106 12.1446 57.6323 21.6709 57.6323 33.3749C57.6323 34.2002 56.9561 34.8764 56.1307 34.8764V34.8665Z" fill="white"/>
</g>
<defs>
<clipPath id="clip0_1_209">
<rect width="69.2992" height="69.9257" fill="white" transform="translate(0.474854 0.00292969)"/>
</clipPath>
</defs>
</svg>
