<svg width="68" height="74" viewBox="0 0 68 74" fill="none" xmlns="http://www.w3.org/2000/svg">
<g clip-path="url(#clip0_1_263)">
<path d="M18.4094 45.347H23.487V61.2664C23.487 61.7504 23.8742 62.1376 24.3582 62.1376H28.8111C29.2951 62.1376 29.6823 61.7504 29.6823 61.2664V36.9518C29.6823 36.4678 29.2951 36.0806 28.8111 36.0806H25.0094C24.5254 36.0806 24.1382 36.4678 24.1382 36.9518C24.1382 36.9958 24.1294 37.1894 23.9886 37.6734C23.8126 38.263 23.5662 38.7294 23.2582 39.0638C22.7742 39.5742 22.1582 39.9086 21.3662 40.0846C20.8206 40.2078 19.8086 40.3046 18.3654 40.3662C17.899 40.3838 17.5294 40.771 17.5294 41.2374V44.4846C17.5294 44.9686 17.9166 45.3558 18.4006 45.3558L18.4094 45.347ZM19.2806 42.0558C20.407 41.9854 21.2166 41.8974 21.7534 41.7742C22.8798 41.5278 23.8126 41.0086 24.5342 40.2518C25.0358 39.7238 25.423 39.011 25.6694 38.1486C25.7046 38.0254 25.731 37.9198 25.7574 37.8142H27.9398V60.3864H25.2294V44.467C25.2294 43.983 24.8422 43.5958 24.3582 43.5958H19.2806V42.047V42.0558Z" fill="white"/>
<path d="M34.8473 60.2809C36.4841 61.6449 38.5874 62.3401 41.0866 62.3401C44.2106 62.3401 46.6042 61.3457 48.2146 59.3744C49.7723 57.456 50.5643 55.256 50.5643 52.8184C50.5643 50.0024 49.7195 47.8023 48.0386 46.2887C46.393 44.7927 44.4306 44.0359 42.213 44.0359C41.1042 44.0359 40.1802 44.1767 39.3794 44.4759C39.2562 44.5199 39.1154 44.5815 38.9746 44.6519L39.2034 41.8095H47.141C47.625 41.8095 48.0122 41.4223 48.0122 40.9383V36.8903C48.0122 36.4062 47.625 36.019 47.141 36.019H34.1169C33.6593 36.019 33.2809 36.3798 33.2457 36.8375L32.3305 50.2312C32.3129 50.4688 32.3921 50.6976 32.5505 50.8736C32.7089 51.0496 32.9289 51.1552 33.1665 51.164L37.9274 51.3664C38.2618 51.3928 38.5786 51.1992 38.737 50.9C39.0098 50.372 39.4058 50.02 39.9338 49.8352C40.2682 49.7208 40.673 49.668 41.157 49.668C42.0986 49.668 42.7234 49.9496 43.137 50.5656C43.6122 51.2696 43.8498 52.1584 43.8498 53.2144C43.8498 54.2704 43.5946 55.1592 43.093 55.828C42.6354 56.444 42.0018 56.7256 41.0954 56.7256C40.3122 56.7256 39.7578 56.5408 39.3882 56.1536C38.9746 55.7224 38.6842 55.0624 38.5346 54.2C38.4554 53.7864 38.0946 53.4872 37.681 53.4872H32.9289C32.6825 53.4872 32.4537 53.5928 32.2865 53.7688C32.1193 53.9448 32.0401 54.1824 32.0577 54.4288C32.2425 56.9368 33.1753 58.908 34.8385 60.2985L34.8473 60.2809ZM36.9945 55.212C37.241 56.0832 37.6282 56.796 38.1386 57.3416C38.8426 58.0808 39.8458 58.4592 41.1042 58.4592C42.565 58.4592 43.709 57.9224 44.501 56.8576C45.2314 55.872 45.601 54.6488 45.601 53.2056C45.601 51.7624 45.2578 50.5744 44.5802 49.58C43.8322 48.48 42.6794 47.9167 41.157 47.9167C40.4882 47.9167 39.8898 48.0047 39.3618 48.1896C38.5874 48.4712 37.9626 48.9464 37.4962 49.6064L34.1433 49.4656L34.9441 37.7703H46.2874V40.0759H38.4202C37.9626 40.0759 37.5842 40.4191 37.549 40.8767L37.1177 46.1831C37.0913 46.5175 37.2586 46.8343 37.5402 47.0015C37.8306 47.1687 38.1826 47.1599 38.4642 46.9751C39.3002 46.4295 39.7666 46.2007 40.013 46.1127C40.6026 45.8927 41.3506 45.7871 42.2306 45.7871C44.0258 45.7871 45.5482 46.3767 46.8858 47.5823C48.197 48.7704 48.8395 50.4864 48.8395 52.8272C48.8395 54.8776 48.197 56.664 46.877 58.2832C45.601 59.8497 43.709 60.6065 41.1042 60.6065C38.9922 60.6065 37.3114 60.0608 35.9825 58.952C34.8825 58.0368 34.2049 56.8048 33.9321 55.2208H37.0034L36.9945 55.212Z" fill="white"/>
<path d="M60.3146 11.7571H58.1762C57.9914 11.7571 57.8154 11.8011 57.657 11.8715V4.71706C57.657 2.34104 55.7298 0.413818 53.3537 0.413818C50.9777 0.413818 49.0505 2.34104 49.0505 4.71706V11.7835C48.9713 11.7659 48.8921 11.7571 48.8129 11.7571H19.2886C19.1742 11.7571 19.0686 11.7747 18.963 11.8011V4.71706C18.963 2.34104 17.0358 0.413818 14.6598 0.413818C12.2838 0.413818 10.3566 2.34104 10.3566 4.71706V11.8363C10.2246 11.7923 10.075 11.7571 9.91655 11.7571H7.77813C3.6949 11.7571 0.368469 15.0835 0.368469 19.1756V66.4144C0.368469 70.5064 3.6949 73.8329 7.78693 73.8329H60.3234C64.4154 73.8329 67.7419 70.5064 67.7419 66.4144V19.1756C67.7419 15.0835 64.4154 11.7571 60.3234 11.7571H60.3146ZM51.4617 4.71706C51.4617 3.67865 52.3065 2.82504 53.3537 2.82504C54.4009 2.82504 55.2458 3.66985 55.2458 4.71706V17.6708C55.2458 18.718 54.4009 19.5628 53.3537 19.5628C52.3065 19.5628 51.4617 18.718 51.4617 17.6708V4.71706ZM12.7678 4.71706C12.7678 3.67865 13.6126 2.82504 14.6598 2.82504C15.707 2.82504 16.5518 3.66985 16.5518 4.71706V17.6708C16.5518 18.718 15.707 19.5628 14.6598 19.5628C13.6126 19.5628 12.7678 18.718 12.7678 17.6708V4.71706ZM65.1194 66.4144C65.1194 69.0632 62.9634 71.2104 60.3146 71.2104H7.78693C5.13811 71.2104 2.99089 69.0544 2.99089 66.4144V19.1756C2.99089 16.5268 5.14691 14.3707 7.78693 14.3707H8.61414V16.9316C8.61414 20.2316 11.2982 22.9244 14.607 22.9244C17.9158 22.9244 20.5998 20.2316 20.5998 16.9316V14.3707H47.5105V16.9316C47.5105 20.2316 50.1945 22.9244 53.5033 22.9244C56.8122 22.9244 59.4962 20.2316 59.4962 16.9316V14.3707H60.3322C62.981 14.3707 65.137 16.5268 65.137 19.1756V66.4144H65.1194Z" fill="white"/>
<path d="M61.31 30.5891H7.01354C6.29194 30.5891 5.70233 31.1787 5.70233 31.9003V63.9942C5.70233 66.4758 7.71755 68.4911 10.1992 68.4911H58.1156C60.5972 68.4911 62.6124 66.4758 62.6124 63.9942V31.8915C62.6124 31.1699 62.0316 30.5803 61.31 30.5803V30.5891ZM59.9988 63.9854C59.9988 65.0238 59.154 65.8686 58.1156 65.8686H10.1992C9.16076 65.8686 8.31595 65.0238 8.31595 63.9854V33.2027H59.9988V63.9854Z" fill="white"/>
</g>
<defs>
<clipPath id="clip0_1_263">
<rect width="67.3646" height="73.4191" fill="white" transform="translate(0.368408 0.414062)"/>
</clipPath>
</defs>
</svg>
