<svg width="76" height="80" viewBox="0 0 76 80" fill="none" xmlns="http://www.w3.org/2000/svg">
<g clip-path="url(#clip0_1_325)">
<path d="M69.8215 44.7448C65.2889 40.8535 58.5454 39.1952 49.7787 39.8032C55.4942 35.9119 59.2418 29.3452 59.2418 21.9272C59.2418 9.99882 49.5355 0.29248 37.6071 0.29248C25.6787 0.29248 15.9834 9.99882 15.9834 21.9272C15.9834 28.9803 19.3773 35.2596 24.6174 39.2063C18.2829 38.5761 4.93941 39.0404 0.893257 53.1025C0.849037 53.2572 0.826927 53.401 0.826927 53.5557V78.12C0.826927 79.0266 1.55656 79.7673 2.46307 79.7673H73.536C74.4425 79.7673 75.1832 79.0266 75.1832 78.12V54.7276C75.1832 54.7276 75.1832 54.6612 75.1832 54.6391C75.1722 54.407 74.8073 49.0232 69.8326 44.7559L69.8215 44.7448ZM19.0678 21.9272C19.0678 11.7013 27.3812 3.3879 37.6071 3.3879C47.833 3.3879 56.1464 11.7013 56.1464 21.9272C56.1464 32.1531 47.8772 40.4223 37.6955 40.4665H37.5186C27.3369 40.4223 19.0678 32.12 19.0678 21.9272ZM37.2865 47.0554H38.8674L41.211 51.8975L38.0051 58.1325L35.6172 53.4231L37.2865 47.0443V47.0554ZM35.3408 43.7609C35.3408 43.1529 35.8383 42.6554 36.4463 42.6554H39.5638C40.1719 42.6554 40.6693 43.1529 40.6693 43.7609C40.6693 44.369 40.1719 44.8665 39.5638 44.8665H36.4463C35.8383 44.8665 35.3408 44.369 35.3408 43.7609ZM41.1115 46.6463C42.1507 46.0936 42.8582 45.0102 42.8582 43.7609C42.8582 43.4735 42.814 43.2082 42.7477 42.9429C44.0522 42.6223 45.3125 42.1911 46.5064 41.6494L42.4824 49.4764L41.1226 46.6684L41.1115 46.6463ZM35.0976 46.7569L34.1247 50.4824L29.8685 42.1027C30.9519 42.5228 32.0685 42.8544 33.2182 43.0976C33.174 43.3077 33.1519 43.5288 33.1519 43.7499C33.1519 45.0876 33.9589 46.2373 35.1086 46.7569H35.0976ZM71.8888 76.4728H4.11028V53.7879C8.22276 40.0686 23.0255 42.0806 26.5078 42.766L36.5347 62.4882C36.8111 63.041 37.3749 63.3837 37.994 63.3837C38.6131 63.3837 39.1769 63.041 39.4533 62.4882L49.4249 43.1198C57.5504 42.4675 63.6638 43.8383 67.6216 47.188C71.4134 50.405 71.8556 54.3517 71.8888 54.7828V76.4728Z" fill="white"/>
</g>
<defs>
<clipPath id="clip0_1_325">
<rect width="74.3452" height="79.4637" fill="white" transform="translate(0.827393 0.29248)"/>
</clipPath>
</defs>
</svg>
