<svg width="62" height="95" viewBox="0 0 62 95" fill="none" xmlns="http://www.w3.org/2000/svg">
<g clip-path="url(#clip0_1_271)">
<path d="M61.6597 88.6426C61.6713 88.2479 61.9151 78.8928 56.0188 73.4955C55.4384 72.9616 54.5679 72.9268 53.9411 73.4027C53.6742 73.6 47.4761 78.1847 41.6262 73.4143C41.011 72.9152 40.1289 72.9268 39.5369 73.4491C39.4557 73.5187 38.7012 74.2035 37.7494 75.4687C36.8441 74.0759 35.7647 72.7527 34.4647 71.5572C33.8843 71.0233 33.0022 70.9884 32.387 71.4643C31.9924 71.7661 22.7185 78.6606 13.8972 71.4759C13.282 70.9768 12.3999 70.9884 11.8079 71.5107C11.4713 71.8009 3.57863 78.8115 3.38132 92.6238C3.38132 93.0648 3.54381 93.4827 3.84559 93.7845C4.14737 94.0978 4.56522 94.2719 4.99468 94.2719H40.686C41.5565 94.2719 42.2761 93.5755 42.311 92.6934C42.311 92.5541 42.3342 91.6372 42.2413 90.2095H60.0347C60.9053 90.2095 61.6249 89.5131 61.6597 88.6426ZM6.67768 91.0336C7.24642 82.3748 11.216 76.9544 13.0267 74.9C21.4533 80.7731 30.054 76.699 33.1531 74.8419C37.9352 79.9838 38.8637 87.7372 39.0262 91.0336H6.67768ZM41.8815 86.9828C41.4985 84.5337 40.7905 81.574 39.4789 78.6722C39.9548 77.9062 40.4074 77.2794 40.7905 76.8267C46.002 80.2043 51.5617 78.6258 54.6956 76.7919C57.4696 80.0186 58.1776 84.5918 58.3634 86.9828H41.8815Z" fill="white"/>
<path d="M44.854 31.2927H32.2024V35.2738C32.2024 37.2702 33.8274 38.8836 35.8122 38.8836H47.0593L50.2512 42.563C50.4834 42.83 50.82 42.9809 51.1682 42.9809C51.3307 42.9809 51.4816 42.946 51.6325 42.888C52.1199 42.6907 52.4217 42.1916 52.3753 41.6693L52.1548 38.8836H57.935C59.9314 38.8836 61.5448 37.2586 61.5448 35.2738V21.0089C61.5448 19.0241 59.9314 17.3992 57.935 17.3992H50.0539V26.0579C50.0539 28.9365 47.7093 31.2811 44.8308 31.2811L44.854 31.2927ZM50.3673 26.1392V19.8366H57.9466C58.5966 19.8366 59.1189 20.3589 59.1189 21.0089V35.2738C59.1189 35.9238 58.5966 36.4461 57.9466 36.4461H50.8548C50.5182 36.4461 50.1932 36.5854 49.9611 36.8292C49.7289 37.0845 49.6128 37.4095 49.6477 37.7577L49.6825 38.1756L48.545 36.864C48.3129 36.597 47.9763 36.4461 47.6281 36.4461H35.8238C35.1738 36.4461 34.6515 35.9122 34.6515 35.2738V31.4784H45.0513C47.9879 31.4784 50.3905 29.0874 50.3905 26.1392H50.3673Z" fill="white"/>
<path d="M0.932074 26.0694C0.932074 28.9479 3.27667 31.2925 6.15519 31.2925H20.1996L19.8049 36.3299C19.7585 36.9335 20.1067 37.5022 20.6639 37.7344C20.838 37.804 21.0237 37.8388 21.2094 37.8388C21.604 37.8388 21.9987 37.6647 22.2656 37.363L27.5352 31.3041H44.8643C47.7428 31.3041 50.0874 28.9595 50.0874 26.081V5.22336C50.0874 2.34484 47.7428 0.000244141 44.8643 0.000244141H6.15519C3.27667 0.000244141 0.932074 2.34484 0.932074 5.22336V26.0694ZM3.74095 5.22336C3.74095 3.88857 4.832 2.79752 6.1668 2.79752H44.8527C46.1875 2.79752 47.2786 3.88857 47.2786 5.22336V26.0694C47.2786 27.4042 46.1875 28.4953 44.8527 28.4953H26.8852C26.4789 28.4953 26.0959 28.6694 25.8289 28.9711L22.9272 32.3139L23.1129 30.0042C23.1477 29.6095 23.0085 29.2265 22.7415 28.9479C22.4745 28.6578 22.1031 28.4953 21.7085 28.4953H6.15519C4.8204 28.4953 3.72934 27.4042 3.72934 26.0694V5.22336H3.74095Z" fill="white"/>
<path d="M47.5687 73.3794C50.5401 73.3794 53.349 72.2187 55.4614 70.1063C57.5739 67.9938 58.7346 65.1849 58.7346 62.2135C58.7346 56.0619 53.7204 51.0593 47.5687 51.0593C44.5857 51.0593 41.7885 52.22 39.676 54.3324C39.0376 54.9708 38.5037 55.6788 38.0394 56.4333C38.0859 55.9342 38.1091 55.4235 38.1091 54.9128C38.1091 46.4978 31.2494 39.6497 22.8344 39.6497C18.7603 39.6497 14.93 41.2398 12.0399 44.1299C9.14977 47.0201 7.55963 50.8503 7.57123 54.9244C7.57123 63.3394 14.4193 70.1875 22.846 70.1875C26.92 70.1875 30.7503 68.5974 33.6404 65.7072C34.7779 64.5697 35.7064 63.2814 36.4261 61.8885C36.4261 62.0046 36.4145 62.1091 36.4145 62.2251C36.4145 68.3768 41.4287 73.3794 47.5803 73.3794H47.5687ZM41.9742 56.619C43.4715 55.1217 45.4563 54.2976 47.5687 54.2976C51.9329 54.2976 55.4847 57.8493 55.4847 62.2135C55.4847 64.326 54.6606 66.3108 53.1633 67.8081C51.666 69.3054 49.6812 70.1295 47.5687 70.1295C43.2045 70.1295 39.6528 66.5777 39.6528 62.2135C39.6528 60.1011 40.4769 58.1163 41.9742 56.619ZM31.3422 63.4091C29.0673 65.684 26.0495 66.9376 22.846 66.9376C16.2184 66.9376 10.8212 61.5403 10.8212 54.9128C10.8212 51.7093 12.0747 48.6915 14.3497 46.4049C16.6246 44.1299 19.6424 42.8764 22.846 42.8764C29.4735 42.8764 34.8707 48.2736 34.8707 54.9012C34.8707 58.1047 33.6172 61.1225 31.3422 63.3974V63.4091Z" fill="white"/>
</g>
<defs>
<clipPath id="clip0_1_271">
<rect width="60.7275" height="94.2715" fill="white" transform="translate(0.931641)"/>
</clipPath>
</defs>
</svg>
