<svg width="79" height="77" viewBox="0 0 79 77" fill="none" xmlns="http://www.w3.org/2000/svg">
<g clip-path="url(#clip0_1_279)">
<path d="M65.29 1.4113H35.5015C30.9087 1.4113 26.8915 4.15992 24.6362 8.27111C22.4514 3.53737 18.0936 0.29541 13.0779 0.29541C5.87746 0.29541 0.027832 6.96728 0.027832 15.1662V61.2467C0.027832 69.4455 5.87746 76.1174 13.0779 76.1174C17.8234 76.1174 21.9581 73.2161 24.2486 68.9052C26.4099 73.4275 30.6385 76.4933 35.5015 76.4933H65.29C72.3377 76.4933 78.0699 70.0329 78.0699 62.0807V15.8239C78.0699 7.87174 72.3377 1.4113 65.29 1.4113ZM22.6511 61.2467C22.6511 67.5192 18.3637 72.6288 13.0897 72.6288C7.81559 72.6288 3.52821 67.5309 3.52821 61.2467V15.1662C3.51647 8.89366 7.80385 3.78404 13.0779 3.78404C18.352 3.78404 22.6394 8.88192 22.6394 15.1662V61.2467H22.6511ZM74.593 62.0689C74.593 68.0947 70.4231 72.9929 65.3017 72.9929H35.5015C30.3801 72.9929 26.2102 68.0947 26.2102 62.0689V15.8239C26.2102 9.79812 30.3801 4.89994 35.5015 4.89994H65.29C70.4113 4.89994 74.5812 9.79812 74.5812 15.8239V62.0689H74.593Z" fill="white"/>
<path d="M35.7238 23.9291H65.0659C67.0863 23.9291 68.719 22.0849 68.719 19.8062V17.0458C68.719 14.7788 67.0863 12.9229 65.0659 12.9229H35.7238C33.7035 12.9229 32.0707 14.7788 32.0707 17.0458V19.8062C32.0707 22.0849 33.7152 23.9291 35.7238 23.9291ZM33.7035 17.0458C33.7035 15.6715 34.6079 14.5556 35.7238 14.5556H65.0659C66.1818 14.5556 67.0863 15.6715 67.0863 17.0458V19.8062C67.0863 21.1805 66.1818 22.3081 65.0659 22.3081H35.7238C34.6079 22.3081 33.7035 21.1922 33.7035 19.8062V17.0458Z" fill="white"/>
<path d="M39.542 26.7827H36.2296C33.9508 26.7827 32.1066 28.6269 32.1066 30.9056V34.7702C32.1066 37.0489 33.9625 38.8931 36.2296 38.8931H39.542C41.8208 38.8931 43.6649 37.0489 43.6649 34.7702V30.9056C43.6649 28.6269 41.8208 26.7827 39.542 26.7827ZM42.044 34.7702C42.044 36.1445 40.9281 37.2721 39.542 37.2721H36.2296C34.8553 37.2721 33.7276 36.1562 33.7276 34.7702V30.9056C33.7276 29.5313 34.8435 28.4037 36.2296 28.4037H39.542C40.9163 28.4037 42.044 29.5196 42.044 30.9056V34.7702Z" fill="white"/>
<path d="M52.6024 26.7827H49.29C47.0112 26.7827 45.1671 28.6269 45.1671 30.9056V34.7702C45.1671 37.0489 47.0112 38.8931 49.29 38.8931H52.6024C54.8812 38.8931 56.7254 37.0489 56.7254 34.7702V30.9056C56.7254 28.6269 54.8695 26.7827 52.6024 26.7827ZM55.1044 34.7702C55.1044 36.1445 53.9885 37.2721 52.6024 37.2721H49.29C47.9157 37.2721 46.7998 36.1562 46.7998 34.7702V30.9056C46.7998 29.5313 47.9157 28.4037 49.29 28.4037H52.6024C53.9767 28.4037 55.1044 29.5196 55.1044 30.9056V34.7702Z" fill="white"/>
<path d="M66.2522 26.7827H62.9398C60.661 26.7827 58.8168 28.6269 58.8168 30.9056V34.7702C58.8168 37.0489 60.6727 38.8931 62.9398 38.8931H66.2522C68.531 38.8931 70.3751 37.0489 70.3751 34.7702V30.9056C70.3751 28.6269 68.5192 26.7827 66.2522 26.7827ZM68.7542 34.7702C68.7542 36.1445 67.6383 37.2721 66.2522 37.2721H62.9398C61.5655 37.2721 60.4496 36.1562 60.4496 34.7702V30.9056C60.4496 29.5313 61.5655 28.4037 62.9398 28.4037H66.2522C67.6265 28.4037 68.7542 29.5196 68.7542 30.9056V34.7702Z" fill="white"/>
<path d="M39.2473 41.1248H35.9349C33.6561 41.1248 31.812 42.9689 31.812 45.2477V49.1122C31.812 51.391 33.6561 53.2351 35.9349 53.2351H39.2473C41.5261 53.2351 43.3703 51.391 43.3703 49.1122V45.2477C43.3703 42.9689 41.5261 41.1248 39.2473 41.1248ZM41.7493 49.1122C41.7493 50.4983 40.6334 51.6142 39.2473 51.6142H35.9349C34.5606 51.6142 33.4447 50.4983 33.4447 49.1122V45.2477C33.4447 43.8734 34.5606 42.7457 35.9349 42.7457H39.2473C40.6216 42.7457 41.7493 43.8616 41.7493 45.2477V49.1122Z" fill="white"/>
<path d="M52.3091 41.1248H48.9966C46.7179 41.1248 44.8737 42.9689 44.8737 45.2477V49.1122C44.8737 51.391 46.7179 53.2351 48.9966 53.2351H52.3091C54.5879 53.2351 56.432 51.391 56.432 49.1122V45.2477C56.432 42.9689 54.5879 41.1248 52.3091 41.1248ZM54.7993 49.1122C54.7993 50.4983 53.6834 51.6142 52.3091 51.6142H48.9966C47.6223 51.6142 46.4947 50.4983 46.4947 49.1122V45.2477C46.4947 43.8734 47.6106 42.7457 48.9966 42.7457H52.3091C53.6834 42.7457 54.7993 43.8616 54.7993 45.2477V49.1122Z" fill="white"/>
<path d="M65.9589 41.1248H62.6464C60.3794 41.1248 58.5235 42.9689 58.5235 45.2477V49.1122C58.5235 51.391 60.3794 53.2351 62.6464 53.2351H65.9589C68.2376 53.2351 70.0818 51.391 70.0818 49.1122V45.2477C70.0818 42.9689 68.2376 41.1248 65.9589 41.1248ZM68.4491 49.1122C68.4491 50.4983 67.3332 51.6142 65.9589 51.6142H62.6464C61.2721 51.6142 60.1562 50.4983 60.1562 49.1122V45.2477C60.1562 43.8734 61.2721 42.7457 62.6464 42.7457H65.9589C67.3332 42.7457 68.4491 43.8616 68.4491 45.2477V49.1122Z" fill="white"/>
<path d="M39.2473 55.4683H35.9349C33.6561 55.4683 31.812 57.3124 31.812 59.5912V63.4557C31.812 65.7345 33.6561 67.5786 35.9349 67.5786H39.2473C41.5261 67.5786 43.3703 65.7345 43.3703 63.4557V59.5912C43.3703 57.3242 41.5261 55.4683 39.2473 55.4683ZM41.7493 63.4557C41.7493 64.83 40.6334 65.9459 39.2473 65.9459H35.9349C34.5606 65.9459 33.4447 64.83 33.4447 63.4557V59.5912C33.4447 58.2169 34.5606 57.101 35.9349 57.101H39.2473C40.6216 57.101 41.7493 58.2169 41.7493 59.5912V63.4557Z" fill="white"/>
<path d="M52.3091 55.4683H48.9966C46.7179 55.4683 44.8737 57.3124 44.8737 59.5912V63.4557C44.8737 65.7345 46.7179 67.5786 48.9966 67.5786H52.3091C54.5879 67.5786 56.432 65.7345 56.432 63.4557V59.5912C56.432 57.3242 54.5879 55.4683 52.3091 55.4683ZM54.7993 63.4557C54.7993 64.83 53.6834 65.9459 52.3091 65.9459H48.9966C47.6223 65.9459 46.4947 64.83 46.4947 63.4557V59.5912C46.4947 58.2169 47.6106 57.101 48.9966 57.101H52.3091C53.6834 57.101 54.7993 58.2169 54.7993 59.5912V63.4557Z" fill="white"/>
<path d="M65.9589 55.4683H62.6464C60.3794 55.4683 58.5235 57.3124 58.5235 59.5912V63.4557C58.5235 65.7345 60.3794 67.5786 62.6464 67.5786H65.9589C68.2376 67.5786 70.0818 65.7345 70.0818 63.4557V59.5912C70.0818 57.3242 68.2376 55.4683 65.9589 55.4683ZM68.4491 63.4557C68.4491 64.83 67.3332 65.9459 65.9589 65.9459H62.6464C61.2721 65.9459 60.1562 64.83 60.1562 63.4557V59.5912C60.1562 58.2169 61.2721 57.101 62.6464 57.101H65.9589C67.3332 57.101 68.4491 58.2169 68.4491 59.5912V63.4557Z" fill="white"/>
</g>
<defs>
<clipPath id="clip0_1_279">
<rect width="78.0421" height="76.1861" fill="white" transform="translate(0.0281982 0.29541)"/>
</clipPath>
</defs>
</svg>
